<svg width="38" height="24" viewBox="0 0 38 24" fill="none" xmlns="http://www.w3.org/2000/svg">
<path d="M2.20002 10.4C1.20592 10.4 0.400024 11.206 0.400024 12.2C0.400024 13.1941 1.20592 14 2.20002 14V10.4ZM35.8 14C36.7941 14 37.6 13.1941 37.6 12.2C37.6 11.206 36.7941 10.4 35.8 10.4V14ZM7.80162 20C6.80752 20 6.00162 20.806 6.00162 21.8C6.00162 22.7941 6.80752 23.6 7.80162 23.6V20ZM30.2008 23.6C31.1949 23.6 32.0008 22.7941 32.0008 21.8C32.0008 20.806 31.1949 20 30.2008 20V23.6ZM7.80162 0.800049C6.80752 0.800049 6.00162 1.60594 6.00162 2.60005C6.00162 3.59415 6.80752 4.40005 7.80162 4.40005V0.800049ZM30.2008 4.40005C31.1949 4.40005 32.0008 3.59415 32.0008 2.60005C32.0008 1.60594 31.1949 0.800049 30.2008 0.800049V4.40005ZM2.20002 14H35.8V10.4H2.20002V14ZM7.80162 23.6H30.2008V20H7.80162V23.6ZM7.80162 4.40005H30.2008V0.800049H7.80162V4.40005Z" fill="black"/>
</svg>
